HIERARCHY
ROOT joint_0
{
	OFFSET 0.000000 0.000000 0.000000
	CHANNELS 6 Xposition Yposition Zposition Zrotation Yrotation Xrotation 
	JOINT joint_1
	{
		OFFSET 0.511002 1.944000 108.288940
		CHANNELS 3 Zrotation Yrotation Xrotation
		JOINT joint_2
		{
			OFFSET -9.074005 1.512993 98.440063
			CHANNELS 3 Zrotation Yrotation Xrotation
			JOINT joint_3
			{
				OFFSET -8.590996 1.815002 98.366943
				CHANNELS 3 Zrotation Yrotation Xrotation
				JOINT joint_4
				{
					OFFSET 2.489998 3.531998 136.462036
					CHANNELS 3 Zrotation Yrotation Xrotation
					JOINT joint_5
					{
						OFFSET 22.708000 2.955002 80.357056
						CHANNELS 3 Zrotation Yrotation Xrotation
						End Site
						{
							OFFSET 0.000000 0.000000 0.000000
						}
					}
				}
				JOINT joint_6
				{
					OFFSET 2.860001 -27.684998 77.234009
					CHANNELS 3 Zrotation Yrotation Xrotation
					JOINT joint_7
					{
						OFFSET 5.449997 -131.244003 -18.851929
						CHANNELS 3 Zrotation Yrotation Xrotation
						JOINT joint_8
						{
							OFFSET 35.757000 -24.661995 -264.074097
							CHANNELS 3 Zrotation Yrotation Xrotation
							JOINT joint_9
							{
								OFFSET 49.392001 -1.747002 -239.960938
								CHANNELS 3 Zrotation Yrotation Xrotation
								End Site
								{
									OFFSET 0.000000 0.000000 0.000000
								}
							}
						}
					}
				}
				JOINT joint_10
				{
					OFFSET -0.127998 31.625000 75.753052
					CHANNELS 3 Zrotation Yrotation Xrotation
					JOINT joint_11
					{
						OFFSET -5.618004 131.132996 -19.557007
						CHANNELS 3 Zrotation Yrotation Xrotation
						JOINT joint_12
						{
							OFFSET 46.488998 30.127991 -261.826050
							CHANNELS 3 Zrotation Yrotation Xrotation
							JOINT joint_13
							{
								OFFSET 66.021003 0.474030 -235.934937
								CHANNELS 3 Zrotation Yrotation Xrotation
								End Site
								{
									OFFSET 0.000000 0.000000 0.000000
								}
							}
						}
					}
				}
			}
		}
	}
	JOINT joint_14
	{
		OFFSET 15.887001 -78.871004 -94.561035
		CHANNELS 3 Zrotation Yrotation Xrotation
		JOINT joint_15
		{
			OFFSET -4.133003 6.714001 -473.615967
			CHANNELS 3 Zrotation Yrotation Xrotation
			JOINT joint_16
			{
				OFFSET -19.541000 5.340000 -399.613007
				CHANNELS 3 Zrotation Yrotation Xrotation
				JOINT joint_17
				{
					OFFSET 164.317001 41.657999 -73.195000
					CHANNELS 3 Zrotation Yrotation Xrotation
					End Site
					{
						OFFSET 0.000000 0.000000 0.000000
					}
				}
			}
		}
	}
	JOINT joint_18
	{
		OFFSET 6.513000 77.960991 -96.406982
		CHANNELS 3 Zrotation Yrotation Xrotation
		JOINT joint_19
		{
			OFFSET -10.660004 -8.518997 -473.485016
			CHANNELS 3 Zrotation Yrotation Xrotation
			JOINT joint_20
			{
				OFFSET -36.967995 -11.098999 -398.260010
				CHANNELS 3 Zrotation Yrotation Xrotation
				JOINT joint_21
				{
					OFFSET 166.067997 30.363998 -74.785000
					CHANNELS 3 Zrotation Yrotation Xrotation
					End Site
					{
						OFFSET 0.000000 0.000000 0.000000
					}
				}
			}
		}
	}
}
MOTION
Frames: 11
Frame Time: 0.016667
-2273.648926 900.112183 1073.881958 6.659970 4.937612 1.754794 -0.689629 2.724907 0.755174 -0.926990 -0.225811 0.068700 -1.125802 0.406084 0.114542 0.015655 -9.565558 0.333811 0.000000 0.000000 0.000000 7.624543 -14.493067 -0.821934 -46.006637 -6.853324 -8.958996 169.239586 -44.646151 -110.047943 0.000000 0.000000 0.000000 -7.417457 9.432052 1.634606 21.037888 -0.194382 9.129364 -176.924288 -64.529126 167.002198 0.000000 0.000000 0.000000 -8.502380 -24.839647 -9.498079 -6.363001 38.680070 2.897661 -10.482677 -5.543177 -2.738908 0.000000 0.000000 0.000000 -1.249010 -5.654508 5.442372 -0.574737 17.002784 -3.041008 0.354018 2.529802 -0.321127 0.000000 0.000000 0.000000 
-2258.723877 898.259766 1077.496948 6.412914 4.588104 1.730594 -0.622151 3.597747 1.447179 -0.903161 -0.403594 -0.121703 -1.053481 0.690351 0.229383 0.018793 -9.954839 0.369014 0.000000 0.000000 0.000000 7.091202 -14.112973 -0.790270 -44.809230 -6.486140 -8.280113 170.670101 -44.715755 -111.350281 0.000000 0.000000 0.000000 -6.070127 10.402241 1.047540 20.031759 0.090099 8.220263 -177.604921 -63.477583 168.758472 0.000000 0.000000 0.000000 -8.126899 -24.165691 -9.292799 -6.557245 33.625163 1.274929 -9.692099 -1.815926 -3.421761 0.000000 0.000000 0.000000 -1.005373 -5.437847 5.694282 -0.488214 18.407757 -3.167806 0.511491 4.875036 -0.691869 0.000000 0.000000 0.000000 
-2244.813477 896.014160 1080.875000 6.227422 4.045811 1.705130 -0.591489 5.068582 2.195907 -0.880845 -0.725292 -0.341527 -0.968774 1.092394 0.401855 0.042885 -10.508455 0.440111 0.000000 0.000000 0.000000 6.504042 -11.432381 -1.088993 -37.266849 -5.643229 -8.315664 172.572247 -54.808402 -117.028289 0.000000 0.000000 0.000000 -4.670009 12.049899 0.214124 18.487490 0.798430 7.242540 -178.265230 -62.770028 171.792264 0.000000 0.000000 0.000000 -7.208840 -22.831117 -8.873475 -6.117506 27.631122 -0.444111 -7.954873 3.678389 -4.139570 0.000000 0.000000 0.000000 -0.698706 -5.253060 5.949297 -0.350956 20.006370 -3.259144 0.770048 7.519914 -1.083886 0.000000 0.000000 0.000000 
-2230.930908 892.940674 1082.442017 6.717700 3.496920 1.912283 -0.699350 6.378857 2.434312 -0.857427 -1.017929 -0.361942 -0.903351 1.370332 0.517927 0.040858 -10.813359 0.524891 0.000000 0.000000 0.000000 5.773188 -10.719888 -1.253657 -35.345323 -5.306336 -8.528470 173.772918 -56.055457 -119.108967 0.000000 0.000000 0.000000 -4.031897 13.824995 -0.262202 17.613470 1.276447 6.653205 -178.681240 -61.906048 173.942011 0.000000 0.000000 0.000000 -6.463465 -21.384652 -8.909719 -5.671122 22.705843 -1.545749 -6.637780 8.128460 -4.731198 0.000000 0.000000 0.000000 -0.767205 -5.343755 6.206054 -0.539547 21.968661 -3.584121 0.762949 9.939366 -1.554366 0.000000 0.000000 0.000000 
-2216.619385 888.703247 1081.362061 8.060153 3.136636 2.302900 -0.888682 7.008795 2.220316 -0.784223 -1.130759 -0.262724 -0.801401 1.460745 0.504630 -0.022674 -10.663865 0.621590 0.000000 0.000000 0.000000 4.909431 -13.752048 -1.183173 -43.646200 -5.802448 -8.951791 173.509127 -43.723028 -113.610902 0.000000 0.000000 0.000000 -4.626738 15.919691 0.211404 17.906303 1.343461 6.427750 -178.860922 -60.485830 174.457213 0.000000 0.000000 0.000000 -6.301038 -20.333824 -9.475616 -5.733202 19.898621 -1.578666 -6.278682 9.786251 -5.006421 0.000000 0.000000 0.000000 -1.324351 -6.043570 6.592993 -1.159119 24.497787 -4.227903 0.410466 12.101676 -2.128652 0.000000 0.000000 0.000000 
-2202.335449 883.638000 1078.472046 9.824391 2.848778 2.684763 -1.112931 7.304099 1.959046 -0.657979 -1.145216 -0.208697 -0.628792 1.486630 0.431127 -0.119017 -10.289378 0.745367 0.000000 0.000000 0.000000 3.450561 -22.295957 -0.716836 -64.906124 -8.461747 -10.480357 -178.934433 -10.229039 -111.254164 0.000000 0.000000 0.000000 -5.849364 18.281366 1.103663 18.858584 1.128879 6.472661 -178.941666 -58.887783 174.320937 0.000000 0.000000 0.000000 -6.428433 -19.445659 -10.106055 -6.095883 18.456512 -1.096725 -6.424501 9.572122 -5.024407 0.000000 0.000000 0.000000 -2.195017 -7.089923 7.227816 -2.073982 27.367828 -5.182466 -0.198234 14.128807 -2.794852 0.000000 0.000000 0.000000 
-2188.460449 878.316223 1074.712036 11.492191 2.462831 2.949204 -1.410270 7.583070 1.837706 -0.525232 -1.157644 -0.218429 -0.407869 1.529751 0.384220 -0.203069 -9.938943 0.868865 0.000000 0.000000 0.000000 1.103902 -36.077028 0.477444 -107.470665 -20.732930 -5.782370 -153.125948 30.347209 -122.737793 0.000000 0.000000 0.000000 -6.850830 20.114467 1.648016 19.879593 0.629830 6.799628 -178.990955 -57.661838 174.280607 0.000000 0.000000 0.000000 -6.756260 -18.484824 -10.400845 -6.705932 18.026154 -0.857281 -6.999618 8.158042 -4.922805 0.000000 0.000000 0.000000 -3.331786 -7.902887 8.257522 -3.232177 30.162850 -6.704494 -1.230344 15.541799 -3.529520 0.000000 0.000000 0.000000 
-2174.797852 872.745972 1069.957031 12.930567 1.862544 3.050870 -1.819714 7.983871 1.954996 -0.363194 -1.209543 -0.315190 -0.138926 1.618419 0.402454 0.035265 -9.708941 0.977437 0.000000 0.000000 0.000000 -144.943940 -74.533727 144.233521 -110.583635 -74.619605 -32.579682 -67.312513 -31.331964 -113.446565 0.000000 0.000000 0.000000 -7.432273 21.135820 1.607843 20.740556 -0.294400 7.432916 -178.933444 -57.057922 174.551925 0.000000 0.000000 0.000000 -7.381818 -17.267947 -10.145063 -7.664827 18.811119 -1.169216 -8.149006 5.286794 -4.692820 0.000000 0.000000 0.000000 -4.967390 -8.089224 9.850451 -4.821591 32.725834 -9.150895 -3.211951 15.985757 -4.458094 0.000000 0.000000 0.000000 
-2161.545166 866.919128 1064.332031 14.312655 1.158955 3.037407 -2.329071 8.398224 2.170635 -0.189488 -1.276967 -0.443407 0.174411 1.710687 0.442456 -0.155167 -9.503165 0.999169 0.000000 0.000000 0.000000 0.648635 -42.565260 -0.725520 155.212409 -3.859024 37.031150 -25.198006 -28.750768 -121.420064 0.000000 0.000000 0.000000 -7.850105 21.466514 1.382257 21.579008 -1.326727 8.178968 -178.825965 -56.838417 174.888964 0.000000 0.000000 0.000000 -8.235270 -15.953296 -9.592427 -8.832112 20.514867 -1.657479 -9.674889 1.425779 -4.356617 0.000000 0.000000 0.000000 -6.895082 -7.944633 11.837940 -6.611457 35.064219 -12.210173 -5.806812 15.800308 -5.492636 0.000000 0.000000 0.000000 
-2149.674805 861.391968 1059.162964 15.550931 0.574291 2.957275 -2.929365 8.683375 2.309329 -0.095338 -1.317022 -0.512591 0.519998 1.763252 0.459777 -0.427088 -9.233668 1.024337 0.000000 0.000000 0.000000 0.084390 -48.053604 -0.644421 -140.783715 -29.270236 6.655749 -22.920478 -75.523593 -158.691900 0.000000 0.000000 0.000000 -8.096773 21.613563 1.158414 22.075089 -2.267685 8.526384 -178.757118 -56.745021 175.486808 0.000000 0.000000 0.000000 -8.957177 -14.918184 -9.035952 -9.811516 22.201411 -2.093087 -11.018530 -1.839217 -4.075777 0.000000 0.000000 0.000000 -8.406071 -8.035522 13.903644 -7.930857 37.284910 -15.124257 -7.731468 15.407577 -6.217529 0.000000 0.000000 0.000000 
-2139.826172 856.266541 1054.642944 16.573365 0.238500 2.767695 -3.545294 8.702639 2.434587 -0.051346 -1.282520 -0.545865 0.754498 1.741564 0.455390 -0.446065 -8.847149 1.109019 0.000000 0.000000 0.000000 1.657541 -40.393019 -2.035307 -109.474083 -21.101943 -5.479669 -32.145568 -78.068560 -177.386153 0.000000 0.000000 0.000000 -8.125357 21.583235 0.951493 22.078907 -2.941105 8.236300 -178.771616 -56.638635 176.532771 0.000000 0.000000 0.000000 -9.375050 -14.457397 -8.498779 -10.509574 23.810580 -2.400547 -12.037462 -4.195676 -3.873358 0.000000 0.000000 0.000000 -9.370174 -8.762738 16.201624 -8.672166 39.932130 -17.975844 -8.545046 14.755174 -6.475158 0.000000 0.000000 0.000000 
